<svg width="148" height="43" viewBox="0 0 148 43" fill="none" xmlns="http://www.w3.org/2000/svg">
<path d="M107.451 22.0988V19.2298H108.266C108.688 19.2298 109.033 19.2298 109.305 19.2061C109.576 19.1825 109.798 19.1328 109.973 19.0617C110.144 18.9884 110.269 18.8676 110.394 18.7233C110.494 18.5788 110.591 18.3848 110.691 18.1434L110.816 17.8051L105.845 4.9043H109.964L112.771 13.0305L115.751 4.9043H119.77L114.552 17.8783C114.23 18.6974 113.908 19.3742 113.586 19.9282C113.265 20.4822 112.893 20.9176 112.474 21.2301C112.053 21.5426 111.534 21.7841 110.94 21.9048C110.346 22.0254 109.63 22.0988 108.765 22.0988H107.451Z" fill="#02691A"/>
<path d="M121.831 4.9043V12.3924C121.831 14.0565 122.42 15.3542 123.601 16.2875C124.781 17.2208 126.239 17.6865 127.977 17.6865C129.715 17.6865 131.174 17.2208 132.354 16.2875C133.534 15.3542 134.123 14.0565 134.123 12.3924V4.9043H130.504V12.2912C130.504 13.0802 130.265 13.6944 129.785 14.1319C129.308 14.5696 128.703 14.7873 127.977 14.7873C127.252 14.7873 126.646 14.5696 126.168 14.1319C125.691 13.6944 125.45 13.0823 125.45 12.2912V4.9043H121.831Z" fill="#02691A"/>
<path d="M56.4619 42.3681C55.7054 41.9477 55.1342 41.4348 54.7482 40.8313C54.7827 41.5383 54.7979 42.0253 54.7979 42.2927V42.6958H51.4697V26.4863H54.8992V30.6959C54.8992 31.1831 54.8906 31.5711 54.8733 31.8555C55.2592 31.334 55.8196 30.8942 56.5503 30.5321C57.281 30.1701 58.0916 29.9912 58.9838 29.9912C60.732 29.9912 62.1611 30.6162 63.269 31.8686C64.3791 33.1209 64.9331 34.6621 64.9331 36.4943C64.9331 38.3266 64.3834 39.8893 63.282 41.133C62.1806 42.3767 60.7471 42.9997 58.9838 42.9997C58.0592 42.9997 57.2186 42.7906 56.4619 42.3703V42.3681ZM58.1001 40.0747C59.042 40.0747 59.8396 39.734 60.495 39.0529C61.1502 38.3718 61.4778 37.5182 61.4778 36.4943C61.4778 35.4705 61.1459 34.6363 60.4819 33.9487C59.8181 33.2589 59.0248 32.914 58.1001 32.914C57.1258 32.914 56.3196 33.2589 55.6794 33.9487C55.0415 34.6384 54.7225 35.4855 54.7225 36.4943C54.7225 37.5031 55.0415 38.3934 55.6794 39.0658C56.3175 39.7382 57.1258 40.0747 58.1001 40.0747Z" fill="#4CEA4C"/>
<path d="M74.27 40.1003C74.7549 39.8115 75.0998 39.3847 75.3027 38.82V37.5289H72.7895C71.2869 37.5289 70.2113 38.0224 70.2113 39.0075C70.2113 40.7922 73.1166 40.788 74.2679 40.1003H74.27ZM72.8837 29.9932C76.6282 29.9932 78.967 31.6917 78.967 35.6061V42.6999H75.5377V41.2406C74.8478 42.4154 73.2373 42.9973 71.358 42.9973C69.7888 42.9973 68.1053 42.5339 67.2042 41.1479C66.8292 40.568 66.6416 39.9107 66.6416 39.1757C66.6416 38.0009 67.0837 37.0783 67.9694 36.4059C69.6594 35.121 73.1966 35.3969 75.3027 35.3969C75.3027 33.5778 74.0606 32.9074 72.3902 32.9074C71.1467 32.9074 69.4116 33.3019 68.4264 34.0821L67.1117 31.5235C68.6269 30.4566 71.0519 29.9974 72.8837 29.9974" fill="#4CEA4C"/>
<path d="M89.5631 29.916C90.8994 29.916 91.9991 30.3126 92.859 31.1081C93.721 31.9034 94.1524 32.9682 94.1524 34.3024V42.6961H90.678V35.2919C90.678 34.5137 90.4494 33.9188 89.9923 33.5049C89.5353 33.0911 88.9682 32.8841 88.2933 32.8841C87.6191 32.8841 87.0179 33.1169 86.4936 33.5825C85.9702 34.0481 85.7073 34.6085 85.7073 35.2681V42.6982H82.2578V30.2199H85.5538V31.7418C85.9766 31.2352 86.5522 30.804 87.2784 30.4485C88.0048 30.0928 88.7653 29.916 89.5609 29.916" fill="#4CEA4C"/>
<path d="M100.874 42.6971H97.4443V26.5112H100.139C100.391 26.5112 100.635 26.5026 100.874 26.4854V42.6971ZM104.958 35.9147L110.049 42.6959H105.866L101.05 35.8889L105.538 30.2931H109.747L104.958 35.9147Z" fill="#4CEA4C"/>
<path d="M65.7114 4.60254C67.4767 4.60254 68.908 5.22549 70.0094 6.46921C71.1109 7.71294 71.6607 9.25855 71.6607 11.108C71.6607 12.9573 71.1065 14.4813 69.9965 15.7337C68.8865 16.986 67.4594 17.6112 65.7114 17.6112C64.8211 17.6112 64.0085 17.43 63.2777 17.0701C62.547 16.7079 61.9866 16.2682 61.6008 15.7466C61.618 16.0333 61.6266 16.4192 61.6266 16.9062V22.0989H58.1973V4.90433H61.5253V5.30743C61.5253 5.57692 61.5081 6.06396 61.4758 6.76887C61.8616 6.16318 62.4328 5.65012 63.1894 5.23198C63.946 4.81161 64.7866 4.60254 65.7114 4.60254ZM64.8276 7.52764C63.8532 7.52764 63.0472 7.86384 62.4068 8.53643C61.7689 9.20888 61.4499 10.0668 61.4499 11.108C61.4499 12.149 61.7689 12.966 62.4068 13.6536C63.0449 14.3434 63.8532 14.6882 64.8276 14.6882C65.7523 14.6882 66.5455 14.3434 67.2095 13.6536C67.8733 12.9638 68.2052 12.1167 68.2052 11.108C68.2052 10.0992 67.8777 9.23054 67.2224 8.5493C66.567 7.86819 65.7673 7.52764 64.8276 7.52764Z" fill="#02691A"/>
<path d="M96.7653 10.526L101.859 17.3073H97.6722L92.8574 10.5001L97.3453 4.90234H101.555L96.7653 10.5238V10.526Z" fill="#02691A"/>
<path d="M92.6802 1.12402H89.251V17.3099H92.6802V1.12402Z" fill="#02691A"/>
<path d="M54.8981 4.9043H51.4688V17.3093H54.8981V4.9043Z" fill="#02691A"/>
<path d="M51.8721 0.530184C52.2256 0.176764 52.661 0 53.1827 0C53.7043 0 54.1396 0.172375 54.4932 0.517308C54.8466 0.862149 55.0234 1.26965 55.0234 1.73955C55.0234 2.20947 54.8466 2.64269 54.4932 2.98753C54.1396 3.33247 53.7043 3.50483 53.1827 3.50483C52.661 3.50483 52.2256 3.33247 51.8721 2.98753C51.5186 2.64269 51.3418 2.2266 51.3418 1.73955C51.3418 1.25237 51.5186 0.866492 51.8721 0.530184Z" fill="#02691A"/>
<path d="M79.8785 4.60254C83.623 4.60254 85.9618 6.30119 85.9618 10.2155V17.3093H82.5324V15.85C81.8425 17.0248 80.2321 17.6068 78.3524 17.6068C76.7833 17.6068 75.1001 17.1434 74.1988 15.7574C73.8238 15.1775 73.6367 14.5201 73.6367 13.7851C73.6367 12.6103 74.078 11.6877 74.9644 11.0152C76.6541 9.73062 80.1913 10.0064 82.2975 10.0064C82.2975 8.18711 81.0555 7.5169 79.3851 7.5169C78.1395 7.5169 76.4062 7.91122 75.4214 8.69157L74.1066 6.13302C75.6214 5.06596 78.0467 4.60693 79.8785 4.60693V4.60254ZM81.2648 14.712C81.7497 14.4231 82.0947 13.9962 82.2975 13.4316V12.1405H79.7843C78.2817 12.1405 77.2061 12.6341 77.2061 13.619C77.2061 15.4039 80.1114 15.3996 81.2627 14.712" fill="#02691A"/>
<path d="M89.5631 29.916C90.8994 29.916 91.9991 30.3126 92.859 31.1081C93.721 31.9034 94.1524 32.9682 94.1524 34.3024V42.6961H90.678V35.2919C90.678 34.5137 90.4494 33.9188 89.9923 33.5049C89.5353 33.0911 88.9682 32.8841 88.2933 32.8841C87.6191 32.8841 87.0179 33.1169 86.4936 33.5825C85.9702 34.0481 85.7073 34.6085 85.7073 35.2681V42.6982H82.2578V30.2199H85.5538V31.7418C85.9766 31.2352 86.5522 30.804 87.2784 30.4485C88.0048 30.0928 88.7653 29.916 89.5609 29.916" fill="#4CEA4C"/>
<path d="M140.665 1.12402H137.235V17.3099H140.665V1.12402Z" fill="#02691A"/>
<path d="M147.439 4.9043H144.01V17.3093H147.439V4.9043Z" fill="#02691A"/>
<path d="M144.414 0.530184C144.768 0.176764 145.203 0 145.725 0C146.246 0 146.682 0.172375 147.035 0.517308C147.389 0.862149 147.565 1.26965 147.565 1.73955C147.565 2.20947 147.389 2.64269 147.035 2.98753C146.682 3.33247 146.246 3.50483 145.725 3.50483C145.203 3.50483 144.768 3.33247 144.414 2.98753C144.061 2.64269 143.884 2.2266 143.884 1.73955C143.884 1.25237 144.061 0.866492 144.414 0.530184Z" fill="#02691A"/>
<g clip-path="url(#clip0_13045_278719)">
<path d="M33.9512 1.12598H34.7724V19.3833C34.7724 20.5904 35.2403 25.3864 35.2403 26.5308V42.6995H33.4834V25.7097C33.4834 24.6988 33.9512 19.8681 33.9512 18.5922V1.12598Z" fill="#4CEA4C"/>
<path d="M37.3446 1.12598H38.166V24.134C38.166 25.5695 38.6336 30.1716 38.6336 31.6265V42.7016H36.877V30.5532C36.877 29.5143 37.3446 24.5329 37.3446 22.886V1.12598Z" fill="#4CEA4C"/>
<path d="M40.7549 1.12598H41.5761V42.6995H40.2871V36.4248C40.2871 35.1659 40.7549 31.1157 40.7549 30.2427V1.12598Z" fill="#4CEA4C"/>
<path d="M17.8045 1.12598H16.9833V11.8238C16.9833 12.9447 16.5156 17.7687 16.5156 18.7926V42.6995H18.2723V18.4714C18.2723 17.4842 17.8045 12.3821 17.8045 11.2871V1.12598Z" fill="#4CEA4C"/>
<path d="M14.4101 1.12598H13.5889V14.3285C13.5889 15.4127 13.1211 20.489 13.1211 21.4935V42.6995H14.8779V21.362C14.8779 20.377 14.4101 14.8781 14.4101 13.7789V1.12598Z" fill="#4CEA4C"/>
<path d="M11.0165 1.12598H10.1953V16.5509C10.1953 17.6717 9.72754 22.9462 9.72754 23.9938V42.6995H11.4842V23.7352C11.4842 22.7438 11.0165 17.0768 11.0165 15.9322V1.12598Z" fill="#4CEA4C"/>
<path d="M7.62386 1.12598H6.80263V18.5663C6.80263 19.7712 6.33496 25.3864 6.33496 26.5331V42.7016H8.09164V26.2162C8.09164 25.2053 7.62386 19.8704 7.62386 18.5943V1.12598Z" fill="#4CEA4C"/>
<path d="M4.22946 1.12598H3.40821V23.317C3.40821 24.7527 2.94043 30.1716 2.94043 31.6265V42.7016H4.69722V30.9604C4.69722 29.9215 4.22946 24.5329 4.22946 22.8839V1.12598Z" fill="#4CEA4C"/>
<path d="M0.821243 1.12617H0V42.6997H1.28906V37.078C1.28906 35.8193 0.821243 31.1159 0.821243 30.2408V1.12402V1.12617Z" fill="#4CEA4C"/>
<path d="M20.376 1.12598H21.1972V7.74556C21.1972 8.87085 21.6651 14.3157 21.6651 15.3201V42.6995H19.9082V15.3201C19.9082 14.3134 20.376 8.75435 20.376 7.74556V1.12598Z" fill="#4CEA4C"/>
<path d="M23.7714 1.12598H24.5927V11.8238C24.5927 12.9447 25.0604 17.7687 25.0604 18.7926V42.6995H23.3037V17.9217C23.3037 16.9325 23.7714 12.3821 23.7714 11.2871V1.12598Z" fill="#4CEA4C"/>
<path d="M27.1639 1.12598H27.9853V14.3285C27.9853 15.4127 28.453 20.3059 28.453 21.3104V42.6995H26.6963V20.4911C26.6963 19.5061 27.1639 14.8781 27.1639 13.7789V1.12598Z" fill="#4CEA4C"/>
<path d="M30.5587 1.12598H31.3798V16.5509C31.3798 17.6717 31.8477 22.5347 31.8477 23.58V42.6995H30.0908V22.7717C30.0908 21.7801 30.5587 17.0768 30.5587 15.9322V1.12598Z" fill="#4CEA4C"/>
</g>
<defs>
<clipPath id="clip0_13045_278719">
<rect width="41.5757" height="41.5778" fill="white" transform="translate(0 1.12402)"/>
</clipPath>
</defs>
</svg>
